<svg width="174" height="49" viewBox="0 0 174 49" fill="none" xmlns="http://www.w3.org/2000/svg">
<path d="M26.5 9.5L36.5 1L51 10.5L41.5 19L26.5 9.5ZM26.5 9.5L16 1L1 11L10.5 18.5L26.5 9.5ZM26 28L15.5 36.5L1 27.5L11 19L26 28ZM26 28L41 19.5L51 27.5L37 36.5L26 28.5V28ZM59 11V37H67C71.2201 36.4277 73.0487 35.5256 75 32.5C77.5862 25.3418 77.8066 21.3896 75 14.5C72.6822 12.3442 70.8983 11.61 67 11H59ZM64.5 15.5V32.5H68.5C70.1555 30.6385 70.7176 29.3353 71 26.5C71.1945 23.8931 71.1864 22.4729 71 20C70.5107 17.5234 69.834 16.7289 68.5 15.5H64.5ZM79 17.5L79.5 36.5H84.5V26.5C85.8037 23.2661 86.933 22.4793 89.5 22.5V17.5C87.4142 17.169 86.283 17.5271 84.5 21.5V17.5H79ZM93.5 18.5C97.874 16.3726 99.5656 17.0633 102.5 18.5C105.18 21.399 105.793 23.3869 105.5 27.5C105.462 31.6788 104.837 33.6677 102.5 36.5C99.4552 37.1078 97.684 36.9571 94.5 36.5C89.5081 31.269 88.7672 24.0555 93.5 18.5ZM96.5 21.5C97.9296 20.6808 98.5025 20.9476 99.5 21.5C100.816 25.9993 100.546 28.5144 100 33C98.6981 33.5438 97.9359 33.5796 96.5 33C95.5897 28.7018 95.5069 26.2013 96.5 21.5ZM107.5 17.5V43.5H113V35.5C116.265 37.3663 118.004 37.2049 121 35.5C123.497 28.6697 123.706 25.0246 121 19C118.378 17.1751 116.805 16.7661 113.5 19L112.5 20.5V17.5H107.5ZM113 22.5C114.757 20.8471 115.646 20.7402 117 22.5C117.629 26.0768 117.634 28.1555 117 32C115.804 33.6066 115.017 33.9955 113 32C112.288 28.5297 112.062 26.5259 113 22.5ZM125 11V37H127.5L129 34.5L131 37H136C138.331 36.1331 139.349 34.0205 140.5 26.5C139.546 21.6611 138.737 19.4001 136 17.5C133.883 16.9943 132.632 17.0185 130 19V11H125ZM130 22.5C131.827 20.371 132.807 20.5398 134.5 22.5C135.36 25.8456 135.238 27.9773 134.5 32C132.808 33.5165 131.826 33.6071 130 32C129.486 28.651 129.331 26.6798 130 22.5ZM144.5 19C140.936 25.6645 141.491 29.2428 144.5 35.5C148.869 37.4755 151.169 37.388 155 35C156.844 32.3069 157.226 30.4135 157 26.5C156.779 22.7743 156.268 21.0934 154.5 19C152.965 17.8087 151.842 17.5209 149.5 17.5C147.162 17.3276 146.137 17.7931 144.5 19ZM148 22.5C149.367 20.3462 150.133 20.6628 151.5 22.5C152.241 26.2912 152.041 28.3492 151.5 32C150.007 33.4091 149.223 33.5994 148 32C147.015 28.4852 146.955 26.417 148 22.5ZM157 17.5L162 26.5L156.5 37H161L164.5 31L167.5 37H173L167.5 26.5L172 17.5H167.5L165.5 21.5L163 17.5H157ZM26 30L36.5 38.5L41 35.5V39.5L26 48L11 39.5L11.5 36L16 38.5L26 30Z" stroke="#4692D9"/>
</svg>
